<svg aria-hidden="true" style="position: absolute; width: 0; height: 0; overflow: hidden;" version="1.1" xmlns="http://www.w3.org/2000/svg" xmlns:xlink="http://www.w3.org/1999/xlink">
<defs>
<symbol id="icon-Vector" viewBox="0 0 166 32">
<path fill="#feffe8" style="fill: var(--color1, #feffe8)" d="M12.8 20.867l3.2-2.467 3.2 2.467-1.2-4.067 3-2.133h-3.733l-1.267-4.133-1.267 4.133h-3.733l3 2.133-1.2 4.067zM7.767 28l3.1-10.133-8.2-5.867h10.133l3.2-10.667 3.2 10.667h10.133l-8.2 5.867 3.1 10.133-8.233-6.267-8.233 6.267z"></path>
</symbol>
 <symbol id="icon-Vector_title_mob" viewBox="0 0 107 32">
      <path fill="none" stroke="#feffe8" stroke-width=".744" d="m12.314.372 2.789 3.112H41.04l.108-.105.05-.048 3.03-2.959h62.563v27.403l-2.869 3.852H89.208l-3.187-2.334H61.763l-.147.124-2.641 2.21H4.398L.372 27.338V.371h11.941z" style="stroke:var(--color1, #feffe8)"/>
    </symbol>
<symbol id="icon-arrow_left" viewBox="0 0 32 32">
<path fill="#feffe8" style="fill: var(--color1, #feffe8)" d="M18.667 22.667l-6.667-6.667 6.667-6.667v13.333z"></path>
</symbol>
<symbol id="icon-arrow_right" viewBox="0 0 32 32">
<path fill="#feffe8" style="fill: var(--color1, #feffe8)" d="M13.333 22.667v-13.333l6.667 6.667-6.667 6.667z"></path>
</symbol>
 <symbol id="icon-close-btn" viewBox="0 0 32 32">
      <path fill="#feffe8" d="M9.333 32 0 22.667V9.334L9.333.001h13.333l9.333 9.333v13.333L22.666 32H9.333zm1.6-8.444L16 18.489l5.067 5.067 2.489-2.489L18.489 16l5.067-5.067-2.489-2.489L16 13.511l-5.067-5.067-2.489 2.489L13.511 16l-5.067 5.067 2.489 2.489zm-.089 4.888h10.311l7.289-7.289V10.844l-7.289-7.289H10.844l-7.289 7.289v10.311l7.289 7.289z" style="fill:var(--color1, #feffe8)"/>
    </symbol>
 <symbol id="icon-burger" viewBox="0 0 41 32">
      <path fill="#feffe8" d="M0 4.571V0h41.143v4.571H0zM0 32v-4.571h41.143V32H0zm0-13.714v-4.571h41.143v4.571H0z" style="fill:var(--color1, #feffe8)"/>
    </symbol>
<symbol id="icon-google-play" viewBox="0 0 26 32">
      <path fill="#ffc801" d="M24.987 14.064c1.176.876 1.176 2.849.074 3.726l-3.103 1.757-4.598-3.62 4.609-3.551 3.018 1.688z" style="fill:var(--color2, #ffc801)"/>
      <path fill="#f93647" d="m21.982 19.53-.001-.001h-.001l-4.629-3.603-.016.012L.304 28.91v.542c0 .716.168 1.48.739 1.745.754.349 1.853-.334 1.853-.334l19.086-11.334z" style="fill:var(--color3, #f93647)"/>
      <path fill="#00d3ff" d="M17.335 15.939.304 28.911V2.677l17.031 13.262z" style="fill:var(--color4, #00d3ff)"/>
      <path fill="#00ef77" d="M.304 2.414v.263l17.031 13.262.016-.012.001-.001.007-.006 4.609-3.524S7.143 3.533 2.845.977C2.658.866 2.21.584 1.673.76c-.644.211-1.37.976-1.37 1.654z" style="fill:var(--color5, #00ef77)"/>
    </symbol>
<symbol id="icon-keyboard_arrow_down" viewBox="0 0 32 32">
<path fill="#feffe8" style="fill: var(--color1, #feffe8)" d="M16 21.333l-8-8.649 1.867-2.018 6.133 6.631 6.133-6.631 1.867 2.018-8 8.649z"></path>
</symbol>
<symbol id="icon-star_half" viewBox="0 0 32 32">
<path fill="#feffe8" style="fill: var(--color1, #feffe8)" d="M20.2 22.467l-1.1-4.8 3.7-3.2-4.867-0.433-1.933-4.533v10.4l4.2 2.567zM7.767 28l2.167-9.367-7.267-6.3 9.6-0.833 3.733-8.833 3.733 8.833 9.6 0.833-7.267 6.3 2.167 9.367-8.233-4.967-8.233 4.967z"></path>
</symbol>
<symbol id="icon-star_rate" viewBox="0 0 32 32">
<path fill="#feffe8" style="fill: var(--color1, #feffe8)" d="M12.8 20.867l3.2-2.467 3.2 2.467-1.2-4.067 3-2.133h-3.733l-1.267-4.133-1.267 4.133h-3.733l3 2.133-1.2 4.067zM7.767 28l3.1-10.133-8.2-5.867h10.133l3.2-10.667 3.2 10.667h10.133l-8.2 5.867 3.1 10.133-8.233-6.267-8.233 6.267z"></path>
</symbol>
</defs>
</svg>
